<svg width="838" height="639" viewBox="0 0 838 639" fill="none" xmlns="http://www.w3.org/2000/svg">
<g clip-path="url(#clip0_17_33)">
<path d="M508.135 192.257C509.178 192.305 510.21 192.031 511.092 191.473C511.974 190.914 512.663 190.099 513.065 189.136C513.468 188.173 513.565 187.109 513.343 186.089C513.121 185.07 512.591 184.143 511.825 183.434C511.696 182.924 511.604 182.558 511.476 182.048C511.522 181.936 511.568 181.826 511.614 181.715C516.301 170.54 532.183 170.617 536.83 181.808C540.954 191.741 546.204 201.691 547.497 212.193C548.066 216.835 547.826 221.541 546.787 226.101C556.473 204.971 561.503 182.006 561.536 158.762C561.538 152.93 561.214 147.101 560.565 141.305C560.029 136.553 559.285 131.834 558.334 127.15C553.142 101.733 541.995 77.9108 525.809 57.6385C517.975 53.364 511.639 46.7908 507.656 38.8046C506.213 35.9338 505.193 32.8693 504.628 29.7063C505.512 29.8222 507.96 16.3631 507.294 15.5373C508.525 13.6685 510.73 12.7395 512.075 10.9158C518.764 1.84623 527.981 3.42984 532.792 15.7547C543.07 20.9422 543.17 29.5452 536.863 37.8193C532.851 43.0834 532.3 50.2063 528.779 55.8419C529.141 56.3055 529.518 56.7547 529.88 57.2184C536.501 65.732 542.272 74.874 547.109 84.5133C545.741 73.8224 547.761 60.9427 551.206 52.6403C555.127 43.1806 562.477 35.2136 568.95 27.0357C576.724 17.2127 592.666 21.4997 594.036 33.9518C594.049 34.0723 594.062 34.1929 594.075 34.3133C593.114 34.8557 592.172 35.4313 591.252 36.0403C590.095 36.8132 589.199 37.9174 588.68 39.2083C588.162 40.4993 588.045 41.9167 588.346 43.2749C588.647 44.6331 589.351 45.8688 590.367 46.8199C591.382 47.7711 592.661 48.3934 594.035 48.6054L594.176 48.6271C593.834 52.092 593.228 55.5258 592.365 58.8989C600.669 91.0102 582.742 102.706 557.146 103.231C556.581 103.521 556.03 103.811 555.465 104.086C560.326 117.86 563.374 132.207 564.535 146.766C565.191 155.356 565.153 163.985 564.419 172.569L564.462 172.265C566.317 162.72 571.408 154.107 578.877 147.882C589.971 138.769 605.643 135.413 617.611 128.089C623.372 124.563 630.754 129.119 629.749 135.798C629.733 135.905 629.717 136.011 629.7 136.118C627.916 136.845 626.179 137.682 624.499 138.624C623.538 139.167 622.596 139.742 621.676 140.351C620.519 141.124 619.623 142.228 619.104 143.519C618.586 144.81 618.469 146.228 618.77 147.586C619.071 148.944 619.775 150.18 620.791 151.131C621.806 152.082 623.085 152.705 624.46 152.917L624.6 152.938C624.702 152.953 624.789 152.967 624.89 152.982C621.842 160.26 617.563 166.959 612.242 172.786C607.051 200.818 584.751 203.478 560.898 195.315H560.884C558.267 206.687 554.475 217.757 549.569 228.346H509.148C509.003 227.897 508.873 227.434 508.743 226.984C512.484 227.22 516.24 226.996 519.927 226.318C516.928 222.638 513.929 218.929 510.93 215.25C510.863 215.181 510.801 215.108 510.742 215.032C509.221 213.149 507.685 211.28 506.164 209.397L506.163 209.394C506.082 203.621 506.744 197.862 508.134 192.258L508.135 192.257Z" fill="#E8EAED"/>
<path d="M637.913 88.8121C630.397 61.4104 691.015 37.913 706.934 59.9796C709.147 56.8424 717.327 54.9368 721.081 55.8992C724.834 56.8615 727.99 59.2674 731.07 61.5964C735.304 64.8492 739.693 68.2175 742.291 72.8945C744.909 77.5524 745.313 83.904 741.791 87.9459C739 91.1602 730.762 93.2389 726.566 94.0858C723.64 94.6825 721.177 95.1637 719.06 95.5101C717.136 92.7394 716.251 89.3799 716.557 86.0212C715.132 86.9825 713.938 88.2472 713.059 89.7247C712.181 91.2023 711.64 92.8559 711.476 94.567C711.418 95.2791 735.131 182.527 735.131 182.527C732.282 184.149 729.285 185.495 726.181 186.55C720.04 177.165 715.337 166.915 712.227 156.139C711.512 163.344 711.602 170.607 712.496 177.792C712.972 181.821 713.653 185.824 714.536 189.783C686.358 195.865 643.976 193.864 625.537 167.995C625.534 167.888 625.531 167.781 625.528 167.674C625.513 166.653 625.144 165.669 624.484 164.89C623.824 164.111 622.913 163.586 621.908 163.404C620.903 163.223 619.867 163.396 618.976 163.895C618.085 164.394 617.395 165.187 617.024 166.139C616.577 167.28 616.165 168.268 615.798 169.054C610.428 149.845 617.376 127.615 637.913 88.8121Z" fill="#1B2430"/>
<path d="M589.963 548.209V549.107C589.928 548.809 589.928 548.507 589.963 548.209Z" fill="#1B2430"/>
<path d="M617.558 393.135C618.274 392.941 619.004 392.799 619.741 392.711C618.895 392.848 618.167 392.99 617.558 393.135Z" fill="#1B2430"/>
<path d="M616.919 393.297C617.113 393.243 617.328 393.189 617.558 393.135C617.344 393.19 617.138 393.231 616.919 393.297Z" fill="#1B2430"/>
<path d="M820.791 638H717.504C716.031 636.824 715.007 635.177 714.604 633.335C714.201 631.493 714.445 629.569 715.293 627.885C718.115 621.414 712.585 615.501 712.585 615.501C710.709 613.302 709.404 610.673 708.786 607.849C708.169 605.025 708.258 602.091 709.046 599.31C711.782 589.752 701.058 562.775 701.058 562.775C701.058 562.775 695.277 597.609 688.193 638H589.963C588.317 635.197 587.45 632.006 587.45 628.755C587.45 625.505 588.317 622.314 589.963 619.511C595.687 609.805 589.963 607.943 589.963 607.943C589.963 607.943 584.238 597.081 589.963 589.195C595.687 581.309 589.963 549.107 589.963 549.107C590.179 550.53 591.809 547.942 594.32 542.514C598.143 534.257 603.985 519.406 609.887 502.166C614.106 489.862 618.36 476.323 621.915 463.087H621.924C622.856 459.609 623.739 456.164 624.573 452.749C626.204 446.054 627.601 439.547 628.663 433.438C630.967 420.28 631.726 408.976 629.957 401.624C628.49 395.506 625.28 392.133 619.741 392.711C622.709 392.219 627.058 391.753 632.416 391.313C633.383 391.235 634.384 391.157 635.419 391.071C675.387 388.051 761.14 386.317 761.14 386.317L787.406 433.352L820.67 492.933C820.67 492.933 819.764 572.862 820.791 638Z" fill="#1B2430"/>
<path d="M710.547 183.022L650.033 170.185L638.018 194.37L597.556 217.796C597.556 217.796 623.637 324.437 623.488 339.436C623.111 377.515 562.182 462.876 608.203 456.309C654.224 449.742 663.573 422.236 678.347 426.585C691.671 430.508 707.94 447.957 718.832 435.477C729.724 422.997 733.56 437.409 740.448 437.907C743.721 438.143 741.75 422.148 749.985 438.404C758.22 454.66 801.889 432.777 787.089 417.977C762.439 393.327 757.429 211.615 757.429 211.615L729.988 203.172L710.547 183.022Z" fill="#E8EAED"/>
<path d="M596.411 570.297C598.843 567.398 600.047 563.665 599.767 559.891C599.488 556.117 597.747 552.602 594.915 550.092C594.332 549.591 593.707 549.139 593.049 548.741L603.167 499.085L579.777 485.086L573.271 554.607C571.832 557.464 571.379 560.718 571.983 563.859C572.587 567.001 574.214 569.854 576.61 571.974C577.985 573.167 579.581 574.078 581.308 574.654C583.035 575.23 584.859 575.46 586.675 575.331C588.491 575.203 590.263 574.718 591.892 573.904C593.52 573.09 594.973 571.964 596.166 570.589C596.249 570.493 596.331 570.396 596.411 570.297Z" fill="#A0616A"/>
<path d="M669.037 308.554C668.89 306.958 666.854 306.233 664.032 305.232C661.198 304.359 658.504 303.084 656.033 301.444C649.786 296.931 652.245 292.212 655.645 285.688C656.309 284.42 657 283.1 657.647 281.728C659.571 277.663 656.508 260.898 648.526 231.888C646.067 222.957 646.076 216.65 644.376 212.465C642.684 208.28 639.293 206.217 630.052 205.786C618.882 205.222 607.944 209.11 599.636 216.598C599.411 216.796 599.178 217.012 598.954 217.219C598.531 217.616 598.117 218.022 597.711 218.436C590.028 226.165 585.632 236.566 585.441 247.463L585.398 249.318L583.491 337.952L578.133 415.732L570.747 522.875L576.217 523.143L598.048 524.23L600.697 524.359L606.979 498.007L614.537 466.297L617.316 454.648L625.936 418.51L629.957 401.624L632.416 391.313L633.417 387.102L638.301 366.635C638.413 366.203 649.648 321.877 662.6 314.465C667.432 311.704 669.175 310.099 669.037 308.554Z" fill="#E8EAED"/>
<path d="M814.355 569.769C811.626 567.148 810.028 563.565 809.9 559.784C809.773 556.002 811.126 552.32 813.672 549.52C814.199 548.959 814.771 548.443 815.382 547.977L799.99 499.694L821.741 483.264L835.676 551.685C837.414 554.371 838.214 557.556 837.951 560.745C837.688 563.933 836.376 566.945 834.222 569.31C832.983 570.643 831.493 571.72 829.838 572.479C828.183 573.237 826.395 573.661 824.576 573.729C822.756 573.796 820.942 573.504 819.235 572.87C817.529 572.235 815.964 571.271 814.63 570.032C814.537 569.946 814.445 569.858 814.355 569.769Z" fill="#A0616A"/>
<path d="M824.996 465.002C824.996 465.002 808.031 405.314 813.205 398.852C818.378 392.391 803.098 391.129 809.683 379.095C816.268 367.061 807.179 365.048 807.179 365.048L802.247 337.379L793.431 269.418L793.163 267.397L790.599 247.625C789.882 241.977 788.035 236.532 785.166 231.615C782.297 226.699 778.466 222.411 773.903 219.008C773.67 218.829 773.432 218.658 773.193 218.487C772.108 217.705 770.999 216.981 769.866 216.315C761.403 211.322 751.464 209.434 741.76 210.976C723.474 213.824 729.165 220.643 726.199 238.911C721.38 268.614 720.13 285.608 722.48 289.447C723.271 290.74 724.103 291.977 724.896 293.165C728.979 299.294 731.931 303.715 726.201 308.883C723.918 310.771 721.377 312.326 718.657 313.499C715.963 314.803 714.014 315.739 714.04 317.342C714.07 318.894 715.974 320.297 721.071 322.521C727.248 325.224 733.883 335.444 739.317 345.884C743.628 354.299 747.473 362.945 750.835 371.783L797.54 503.139L805.158 524.561L807.785 524.145L829.365 520.724L834.777 519.867L824.996 465.002Z" fill="#E8EAED"/>
<path d="M685.016 169.278C712.282 169.278 734.386 147.174 734.386 119.908C734.386 92.6415 712.282 70.5377 685.016 70.5377C657.75 70.5377 635.646 92.6415 635.646 119.908C635.646 147.174 657.75 169.278 685.016 169.278Z" fill="#A0616A"/>
<path d="M610.967 92.6615C603.451 65.2599 664.069 41.7625 679.987 63.829C682.201 60.6918 690.381 58.7863 694.134 59.7486C697.888 60.711 701.044 63.1169 704.124 65.4459C708.358 68.6987 712.746 72.0669 715.345 76.744C717.962 81.4018 718.367 87.7535 714.844 91.7954C712.053 95.0097 703.816 97.0884 699.62 97.9353C696.694 98.5319 694.23 99.0131 692.113 99.3595C690.19 96.5889 689.304 93.2294 689.611 89.8707C688.186 90.8319 686.991 92.0967 686.113 93.5742C685.234 95.0517 684.694 96.7053 684.53 98.4164C684.472 99.1286 708.185 186.377 708.185 186.377C705.336 187.998 702.339 189.345 699.235 190.399C693.094 181.014 688.391 170.764 685.281 159.988C684.566 167.194 684.656 174.456 685.55 181.642C686.025 185.671 686.706 189.673 687.59 193.633C659.412 199.715 617.03 197.713 598.591 171.845C598.588 171.738 598.584 171.631 598.582 171.524C598.567 170.502 598.198 169.518 597.538 168.739C596.878 167.96 595.967 167.435 594.962 167.254C593.957 167.072 592.92 167.246 592.029 167.745C591.138 168.244 590.449 169.037 590.078 169.989C589.631 171.13 589.219 172.118 588.852 172.903C583.482 153.695 590.43 131.464 610.967 92.6615Z" fill="#1B2430"/>
<path d="M366.121 263.257C365.078 263.305 364.046 263.031 363.164 262.473C362.282 261.914 361.594 261.099 361.191 260.136C360.788 259.173 360.691 258.109 360.913 257.09C361.135 256.07 361.665 255.143 362.432 254.434C362.56 253.924 362.652 253.558 362.781 253.048C362.735 252.936 362.688 252.826 362.642 252.715C357.956 241.54 342.073 241.617 337.427 252.808C333.303 262.741 328.052 272.691 326.759 283.193C326.19 287.835 326.43 292.541 327.469 297.101C317.783 275.971 312.753 253.006 312.721 229.762C312.719 223.93 313.043 218.101 313.691 212.305C314.227 207.553 314.971 202.835 315.923 198.15C321.114 172.734 332.261 148.911 348.447 128.639C356.281 124.364 362.617 117.791 366.6 109.805C368.043 106.934 369.063 103.869 369.628 100.706C368.744 100.822 366.296 87.3632 366.962 86.5374C365.731 84.6686 363.527 83.7396 362.182 81.9159C355.492 72.8463 346.276 74.4299 341.464 86.7548C331.186 91.9423 331.086 100.545 337.393 108.819C341.405 114.084 341.957 121.206 345.477 126.842C345.115 127.306 344.738 127.755 344.376 128.218C337.755 136.732 331.985 145.874 327.147 155.513C328.516 144.822 326.495 131.943 323.05 123.64C319.129 114.181 311.779 106.214 305.307 98.0358C297.532 88.2128 281.59 92.4998 280.22 104.952C280.207 105.072 280.194 105.193 280.182 105.313C281.143 105.856 282.084 106.431 283.005 107.04C284.161 107.813 285.058 108.917 285.576 110.208C286.095 111.499 286.211 112.917 285.91 114.275C285.609 115.633 284.905 116.869 283.89 117.82C282.875 118.771 281.596 119.394 280.221 119.605L280.08 119.627C280.423 123.092 281.028 126.526 281.891 129.899C273.588 162.01 291.514 173.706 317.11 174.231C317.675 174.521 318.226 174.811 318.791 175.086C313.931 188.86 310.882 203.207 309.722 217.767C309.065 226.356 309.104 234.985 309.838 243.569L309.794 243.265C307.94 233.72 302.848 225.108 295.379 218.882C284.286 209.769 268.613 206.414 256.645 199.089C250.884 195.563 243.502 200.119 244.507 206.798C244.524 206.905 244.54 207.012 244.556 207.118C246.34 207.845 248.077 208.682 249.757 209.624C250.719 210.167 251.66 210.743 252.581 211.351C253.737 212.124 254.634 213.229 255.152 214.519C255.671 215.81 255.787 217.228 255.486 218.586C255.185 219.944 254.481 221.18 253.466 222.131C252.451 223.082 251.172 223.705 249.797 223.917L249.656 223.938C249.555 223.953 249.468 223.967 249.366 223.982C252.415 231.26 256.693 237.959 262.014 243.786C267.206 271.818 289.505 274.478 313.358 266.315H313.373C315.99 277.687 319.782 288.758 324.688 299.346H365.108C365.253 298.897 365.383 298.434 365.514 297.984C361.772 298.22 358.016 297.996 354.329 297.318C357.328 293.638 360.327 289.929 363.326 286.25C363.393 286.181 363.456 286.108 363.514 286.032C365.036 284.149 366.571 282.28 368.092 280.397L368.093 280.394C368.174 274.621 367.512 268.862 366.122 263.258L366.121 263.257Z" fill="#E8EAED"/>
<path d="M177.516 59.9806C176.599 62.1185 148.312 61.8894 147.016 63.7931C137.028 78.4902 173.035 141.023 163.046 155.739L161.655 157.397C164.913 155.895 168.044 154.129 171.014 152.117C171.281 146.093 171.548 140.05 171.834 134.027C174.826 137.854 177.241 142.099 179.001 146.627C181.327 144.988 183.235 141.949 193.203 135.971C197.238 131.538 201.891 127.709 207.017 124.6L177.516 59.9806Z" fill="#1B2430"/>
<path d="M198.057 180.431C194.935 178.398 191.374 177.138 187.668 176.757C183.962 176.375 180.219 176.883 176.748 178.238C173.278 179.593 170.181 181.756 167.714 184.548C165.247 187.339 163.481 190.679 162.564 194.289L119.578 306.293L45.69 264.345C45.3656 259.523 43.5225 254.928 40.4251 251.219C37.3277 247.509 33.1351 244.876 28.4487 243.697C23.7622 242.518 18.8227 242.853 14.3385 244.654C9.85435 246.456 6.05591 249.631 3.48799 253.725C0.920063 257.819 -0.285411 262.621 0.0444602 267.442C0.374331 272.263 2.22261 276.856 5.32418 280.562C8.42576 284.268 12.6213 286.897 17.3091 288.071C21.9968 289.245 26.936 288.904 31.4181 287.097C46.9782 303.704 114.437 371.794 142.365 345.19C165.839 322.828 199.715 236.16 207.87 206.233C209.176 201.447 208.93 196.37 207.166 191.733C205.403 187.097 202.213 183.139 198.057 180.431Z" fill="#FFB6B6"/>
<path d="M117.341 349.883L130.906 411.195L230.098 420.167L239.214 366.781L117.341 349.883Z" fill="#FFB6B6"/>
<path d="M268.858 507.11C268.813 507.989 268.759 508.859 268.695 509.738C267.744 522.442 266.657 537.094 265.479 553.15C263.621 578.631 261.546 607.645 259.453 638H51.397L91.7473 516.718C91.7473 516.718 108.04 507.748 99.7451 492.679C91.4503 477.61 107.771 489.619 107.923 468.098C108.075 446.578 122.7 423.683 122.7 423.683L125.101 391.098L126.47 391.126L234.743 392.929L236.718 392.965L240.044 420.937C260.235 444.964 270.536 475.77 268.858 507.11Z" fill="#1B2430"/>
<path d="M179.25 150.718L228.623 148.174L251.555 184.41C251.555 184.41 294.702 191.624 291.712 242.468C288.721 293.312 239.214 337.928 239.214 337.928L241.33 330.673L237.655 341.175L238.126 347.072L243.14 353.316L243.656 359.775L239.214 369.993C239.792 370.919 240.098 371.989 240.099 373.08C240.1 374.172 239.794 375.241 239.218 376.168C238.641 377.095 237.817 377.841 236.838 378.323C235.858 378.805 234.764 379.003 233.678 378.894L162.338 371.744C160.714 367.276 159.411 361.93 152.9 370.83L146.18 370.179L118.244 367.472L116.599 361.482C115.665 358.079 115.519 354.507 116.173 351.039C116.828 347.57 118.264 344.297 120.374 341.468C117.948 333.869 118.583 325.624 122.146 318.487L122.279 318.219L125.246 315.746C125.246 315.746 92.7893 266.985 130.049 230.258L145.003 204.836L161.735 184.422L179.25 150.718Z" fill="#5F7493"/>
<path d="M191.538 129.328C217.395 129.328 238.357 108.366 238.357 82.5089C238.357 56.6516 217.395 35.6901 191.538 35.6901C165.681 35.6901 144.719 56.6516 144.719 82.5089C144.719 108.366 165.681 129.328 191.538 129.328Z" fill="#FFB6B6"/>
<path d="M227.097 149.955C223.285 146.769 220.631 142.413 219.548 137.564C218.683 143.452 218.909 149.449 220.216 155.254C217.68 157.16 215.221 158.971 212.896 160.611C211.135 156.083 208.72 151.838 205.728 148.01C205.442 154.034 205.176 160.077 204.909 166.101C201.938 168.113 198.808 169.879 195.549 171.381L196.941 169.722C206.929 155.006 181.081 127.919 191.069 113.222C193.872 109.104 181.214 76.5648 171.569 75.097C162.991 73.8008 163.353 76.2789 155.042 78.0898C154.178 74.4902 152.839 71.022 151.058 67.777C151.532 71.3929 151.422 75.0614 150.734 78.6426C147.779 78.7569 145.454 76.8743 142.308 76.3932C122.235 73.3242 124.275 51.6123 129.86 44.7307C135.465 37.8683 154.069 35.8096 162.647 33.5792C163.429 32.8168 165.202 33.2933 165.983 32.5689C182.423 17.5239 204.409 15.0324 224.195 21.7007C245.295 28.8119 258.451 42.5752 265.203 63.7931L267.139 80.7728C268.877 86.2323 266.691 111.635 265.203 117.168C259.417 138.674 247.096 127.938 227.097 149.955Z" fill="#1B2430"/>
<path d="M295.363 371.77L293.52 228.218C293.424 222.136 290.941 216.336 286.606 212.069C282.271 207.802 276.433 205.411 270.35 205.411H270.35C267.204 205.411 264.09 206.052 261.199 207.294C258.308 208.537 255.701 210.355 253.536 212.639C251.371 214.922 249.693 217.622 248.606 220.575C247.518 223.527 247.043 226.67 247.21 229.813L253.696 378.87L253.819 469.609C249.997 471.23 246.765 473.989 244.565 477.51C242.365 481.032 241.302 485.145 241.521 489.292C241.74 493.438 243.23 497.417 245.788 500.687C248.347 503.957 251.851 506.36 255.823 507.57C259.795 508.78 264.043 508.737 267.99 507.449C271.938 506.16 275.392 503.687 277.885 500.367C280.378 497.046 281.789 493.038 281.925 488.888C282.061 484.738 280.916 480.647 278.646 477.17L295.363 371.77Z" fill="#FFB6B6"/>
<path d="M537 557.494C537 557.494 534.15 608.764 532.84 638.004H434.7C432.68 611.394 432 591.844 432 591.844L426.63 638.004H327.43L321.28 552.514L351 478.844C351 478.844 512.06 467.674 527 481.844C541.93 496.004 537 557.494 537 557.494Z" fill="#1B2430"/>
<path d="M450.216 126.206C479.822 126.206 503.823 102.205 503.823 72.5988C503.823 42.9925 479.822 18.9919 450.216 18.9919C420.61 18.9919 396.609 42.9925 396.609 72.5988C396.609 102.205 420.61 126.206 450.216 126.206Z" fill="#FFB6B6"/>
<path d="M512.7 55.1799C507.194 57.6906 503.626 75.8743 499.299 71.647C494.971 67.4196 495.26 61.9184 489.425 60.3583C484.713 59.0931 479.642 60.5391 475.345 62.8196C474.577 63.222 473.833 63.6596 473.108 64.0947C472.629 63.7749 472.153 63.474 471.642 63.1963C467.797 61.139 463.31 60.6343 459.105 61.7862C462.428 62.8992 465.317 65.0287 467.364 67.8734C465.925 68.8373 464.468 69.8038 462.978 70.6601C450.528 77.8449 432.812 62.2219 419.707 56.3527C427.915 71.7567 423.873 78.1362 416.746 94.0672L416.5 94.9744C416.905 90.9816 404.549 88.006 405.266 93.6266C405.775 97.6173 409.228 106.487 411.163 110.011C397.384 94.0791 387.968 74.5831 389.955 54.4713C390.388 50.2464 390.257 45.7887 392.436 42.1218C394.618 38.4738 399.166 35.9138 403.189 37.3049C402.848 30.891 404.252 24.5046 407.251 18.8247C410.249 13.1448 414.731 8.38361 420.22 5.04738C425.708 1.71116 431.998 -0.0754205 438.421 -0.12243C444.844 -0.16944 451.159 1.52489 456.696 4.78042C461.841 7.79928 466.136 12.0689 470.851 15.7518C475.566 19.4347 481.002 22.6449 486.981 22.9489C490.775 23.1319 494.902 22.2058 498.161 24.1704C501.936 26.45 502.582 31.2228 503.149 35.8153C499.782 36.1473 496.59 37.4755 493.982 39.6303C497.466 39.275 500.973 40.0272 504.004 41.78C504.062 41.806 504.117 41.8373 504.169 41.8733C506.164 49.4633 505.96 51.1459 512.7 55.1799Z" fill="#1B2430"/>
<path d="M327.668 504.779C373.319 451.344 357.899 383.379 339.781 314.771L343.228 213.418C343.397 208.446 344.76 203.588 347.202 199.254C349.644 194.919 353.093 191.237 357.257 188.516L403.861 158.07L422 131.844L472 136.844L499.727 166.166L530.417 189.596C538.123 195.479 543.986 203.442 547.316 212.547C550.645 221.652 551.302 231.52 549.209 240.986L519.839 373.806C519.839 373.806 532.123 442.661 524.628 450.266C517.133 457.87 497.82 450.27 513.135 458.806C531.515 469.051 548.227 467.16 538.926 476.462C529.624 485.763 541.396 498.694 541.396 498.694L327.668 504.779Z" fill="#FBB18C"/>
<path d="M347.186 582.438L354.796 528.218L324.429 519.549L318.422 577.16C315.909 579.465 314.089 582.424 313.165 585.707C312.242 588.989 312.253 592.464 313.196 595.74C314.139 599.017 315.978 601.965 318.505 604.254C321.032 606.543 324.148 608.082 327.501 608.698C330.855 609.313 334.314 608.981 337.489 607.738C340.664 606.495 343.43 604.392 345.475 601.663C347.52 598.935 348.764 595.691 349.066 592.294C349.368 588.898 348.717 585.485 347.186 582.438Z" fill="#FFB6B6"/>
<path d="M405 167.844C405 167.844 318.562 195.977 316.5 216.561C314.439 237.146 315.123 249.747 306 332.117L306.481 554C306.481 554 364.432 566.408 358.489 553.142C352.546 539.876 354.62 533.634 354.62 533.634C354.62 533.634 367.045 528.731 363.934 513.155C360.824 497.578 376.421 420.387 376.421 420.387L386.266 281.948L405 167.844Z" fill="#FBB18C"/>
<path d="M511.581 579.567L507.53 524.965L538.399 518.299L540.627 576.18C542.985 578.644 544.608 581.716 545.315 585.052C546.021 588.388 545.784 591.854 544.628 595.062C543.473 598.27 541.445 601.092 538.774 603.211C536.103 605.33 532.893 606.662 529.506 607.057C526.12 607.451 522.69 606.894 519.603 605.446C516.516 603.999 513.893 601.719 512.031 598.863C510.168 596.007 509.14 592.688 509.06 589.279C508.98 585.87 509.853 582.507 511.58 579.567H511.581Z" fill="#FFB6B6"/>
<path d="M480.99 162.08C480.99 162.08 565.405 195.803 566.116 216.478C566.827 237.153 565.321 249.683 569.041 332.473L554.058 553.85C554.058 553.85 495.419 562.443 502.216 549.594C509.014 536.745 507.353 530.381 507.353 530.381C507.353 530.381 495.275 524.676 499.397 509.337C503.518 493.997 493 415.951 493 415.951L492.226 277.165L480.99 162.08Z" fill="#FBB18C"/>
</g>
<defs>
<clipPath id="clip0_17_33">
<rect width="838" height="638.004" fill="white"/>
</clipPath>
</defs>
</svg>
