<svg width="739" height="66" viewBox="0 0 739 66" fill="none" xmlns="http://www.w3.org/2000/svg">
<path d="M1.936 65L6.448 50.6H0.4V38.984H10.096L13.168 29.192H4.336V17.48H16.816L21.328 3.17599H36.784L32.272 17.48H42.928L47.44 3.17599H62.896L58.384 17.48H63.856V29.192H54.64L51.568 38.984H60.016V50.6H47.92L43.408 65H28.048L32.56 50.6H21.808L17.296 65H1.936ZM25.456 38.984H36.208L39.28 29.192H28.528L25.456 38.984ZM68.65 65L92.362 3.17599H111.466L135.178 65H116.362L111.178 51.848H92.554L87.466 65H68.65ZM94.954 38.888H108.778L101.866 20.744L94.954 38.888ZM169.208 65.96C158.008 65.96 149.464 63.208 143.576 57.704C137.688 52.2 134.744 44.424 134.744 34.376C134.744 24.008 137.624 16.072 143.384 10.568C149.144 5 157.72 2.216 169.112 2.216C172.952 2.216 176.376 2.504 179.384 3.08C182.392 3.656 185.272 4.456 188.024 5.48V21.224C182.52 18.792 176.632 17.576 170.36 17.576C164.536 17.576 160.216 18.92 157.4 21.608C154.584 24.232 153.176 28.488 153.176 34.376C153.176 40.136 154.648 44.296 157.592 46.856C160.6 49.352 164.92 50.6 170.552 50.6C173.624 50.6 176.6 50.312 179.48 49.736C182.424 49.16 185.336 48.264 188.216 47.048V62.888C185.464 63.848 182.552 64.584 179.48 65.096C176.472 65.672 173.048 65.96 169.208 65.96ZM208.512 65V16.616H191.136V3.17599H243.936V16.616H226.56V65H208.512ZM248.957 13.448V0.391996H268.445V13.448H248.957ZM250.397 65V32.648H243.773L245.309 19.496H268.445V65H250.397ZM301.773 65.96C292.685 65.96 285.965 63.944 281.613 59.912C277.325 55.88 275.181 49.992 275.181 42.248C275.181 34.568 277.357 28.712 281.709 24.68C286.061 20.584 292.749 18.536 301.773 18.536C310.861 18.536 317.581 20.584 321.933 24.68C326.349 28.712 328.557 34.568 328.557 42.248C328.557 49.992 326.381 55.88 322.029 59.912C317.677 63.944 310.925 65.96 301.773 65.96ZM301.773 52.808C304.717 52.808 306.829 51.976 308.109 50.312C309.453 48.648 310.125 45.96 310.125 42.248C310.125 38.6 309.453 35.944 308.109 34.28C306.829 32.552 304.717 31.688 301.773 31.688C298.893 31.688 296.813 32.552 295.533 34.28C294.253 35.944 293.613 38.6 293.613 42.248C293.613 45.96 294.253 48.648 295.533 50.312C296.813 51.976 298.893 52.808 301.773 52.808ZM335.32 65V19.496H352.216L352.696 22.952C354.424 21.8 356.696 20.776 359.512 19.88C362.392 18.984 365.464 18.536 368.728 18.536C374.424 18.536 378.584 19.944 381.208 22.76C383.832 25.576 385.144 29.928 385.144 35.816V65H367.096V37.64C367.096 35.592 366.648 34.12 365.752 33.224C364.856 32.328 363.288 31.88 361.048 31.88C359.704 31.88 358.296 32.2 356.824 32.84C355.416 33.48 354.264 34.248 353.368 35.144V65H335.32ZM413.514 65.96C409.354 65.96 405.418 65.64 401.706 65C397.994 64.296 394.826 63.336 392.202 62.12V47.24C395.082 48.584 398.282 49.672 401.802 50.504C405.322 51.336 408.618 51.752 411.69 51.752C414.89 51.752 417.29 51.496 418.89 50.984C420.554 50.408 421.386 49.16 421.386 47.24C421.386 45.896 420.906 44.84 419.946 44.072C419.05 43.304 417.61 42.6 415.626 41.96C413.706 41.32 411.178 40.52 408.042 39.56C403.882 38.216 400.586 36.744 398.154 35.144C395.722 33.544 393.962 31.592 392.874 29.288C391.85 26.984 391.338 24.168 391.338 20.84C391.338 14.76 393.482 10.152 397.77 7.016C402.122 3.816 408.554 2.216 417.066 2.216C420.458 2.216 423.946 2.504 427.53 3.08C431.178 3.656 434.122 4.296 436.362 5V19.976C433.354 18.76 430.474 17.896 427.722 17.384C424.97 16.872 422.378 16.616 419.946 16.616C417.13 16.616 414.73 16.84 412.746 17.288C410.762 17.736 409.77 18.888 409.77 20.744C409.77 22.344 410.602 23.528 412.266 24.296C413.994 25 417.034 25.928 421.386 27.08C426.442 28.424 430.282 30.056 432.906 31.976C435.594 33.896 437.418 36.136 438.378 38.696C439.338 41.192 439.818 44.04 439.818 47.24C439.818 52.872 437.642 57.416 433.29 60.872C428.938 64.264 422.346 65.96 413.514 65.96ZM446.508 65V3.17599H478.38C483.436 3.17599 487.596 4.2 490.86 6.248C494.188 8.232 496.652 10.952 498.252 14.408C499.852 17.864 500.652 21.704 500.652 25.928C500.652 30.28 499.724 34.152 497.868 37.544C496.012 40.936 493.388 43.592 489.996 45.512C486.604 47.432 482.604 48.392 477.996 48.392H464.556V65H446.508ZM464.556 34.568H473.868C476.684 34.568 478.764 33.768 480.108 32.168C481.516 30.568 482.22 28.488 482.22 25.928C482.22 23.176 481.58 21 480.3 19.4C479.02 17.8 477.036 17 474.348 17H464.556V34.568ZM505.476 65V3.17599H552.324V17H523.524V27.08H548.772V41.096H523.524V51.176H552.324V65H505.476ZM556.15 65L579.862 3.17599H598.966L622.678 65H603.862L598.678 51.848H580.054L574.966 65H556.15ZM582.454 38.888H596.278L589.366 20.744L582.454 38.888ZM629.414 65V3.17599H647.462V24.968L666.182 3.17599H686.726L664.934 28.52L688.262 65H669.062L653.798 40.04L647.462 47.144V65H629.414ZM711.826 65.96C707.666 65.96 703.73 65.64 700.018 65C696.306 64.296 693.138 63.336 690.514 62.12V47.24C693.394 48.584 696.594 49.672 700.114 50.504C703.634 51.336 706.93 51.752 710.002 51.752C713.202 51.752 715.602 51.496 717.202 50.984C718.866 50.408 719.698 49.16 719.698 47.24C719.698 45.896 719.218 44.84 718.258 44.072C717.362 43.304 715.922 42.6 713.938 41.96C712.018 41.32 709.49 40.52 706.354 39.56C702.194 38.216 698.898 36.744 696.466 35.144C694.034 33.544 692.274 31.592 691.186 29.288C690.162 26.984 689.65 24.168 689.65 20.84C689.65 14.76 691.794 10.152 696.082 7.016C700.434 3.816 706.866 2.216 715.378 2.216C718.77 2.216 722.258 2.504 725.842 3.08C729.49 3.656 732.434 4.296 734.674 5V19.976C731.666 18.76 728.786 17.896 726.034 17.384C723.282 16.872 720.69 16.616 718.258 16.616C715.442 16.616 713.042 16.84 711.058 17.288C709.074 17.736 708.082 18.888 708.082 20.744C708.082 22.344 708.914 23.528 710.578 24.296C712.306 25 715.346 25.928 719.698 27.08C724.754 28.424 728.594 30.056 731.218 31.976C733.906 33.896 735.73 36.136 736.69 38.696C737.65 41.192 738.13 44.04 738.13 47.24C738.13 52.872 735.954 57.416 731.602 60.872C727.25 64.264 720.658 65.96 711.826 65.96Z" fill="#6B728E"/>
</svg>
